<svg width="14" height="14" viewBox="0 0 14 14" fill="none" xmlns="http://www.w3.org/2000/svg">
<g clip-path="url(#clip0_1_44)">
<path d="M1.89041 3.55717C2.25597 3.30167 2.80702 3.35067 3.13524 3.62173L2.7588 3.07456C2.45585 2.6425 2.56435 2.17506 2.9968 1.87173C3.42924 1.56956 4.65463 2.38195 4.65463 2.38195C4.34897 1.94561 4.40613 1.39261 4.84247 1.08656C5.2788 0.78167 5.8808 0.887059 6.18647 1.32417L10.2387 7.04861L9.72224 12.0556L5.41219 10.4837L1.6528 4.90973C1.34441 4.47067 1.45097 3.86517 1.89041 3.55717Z" fill="#EF9645"/>
<path d="M1.04804 6.74177C1.04804 6.74177 0.607814 6.10011 1.24987 5.66027C1.89115 5.22044 2.33098 5.86172 2.33098 5.86172L4.37304 8.83983C4.44343 8.72239 4.52043 8.6065 4.60637 8.49216L1.77215 4.35944C1.77215 4.35944 1.33231 3.71816 1.97398 3.27833C2.61526 2.8385 3.05509 3.47977 3.05509 3.47977L5.72093 7.3675C5.82009 7.28661 5.92159 7.20533 6.0262 7.12561L2.9357 2.618C2.9357 2.618 2.49587 1.97672 3.13754 1.53688C3.77881 1.09705 4.21865 1.73833 4.21865 1.73833L7.30915 6.24516C7.4227 6.17555 7.53509 6.11527 7.64787 6.0515L4.7592 1.83905C4.7592 1.83905 4.31937 1.19777 4.96065 0.75794C5.60192 0.318107 6.04176 0.959385 6.04176 0.959385L9.09609 5.41372L9.56042 6.09116C7.6362 7.41105 7.45304 9.89411 8.55243 11.4975C8.77215 11.8183 9.09298 11.5986 9.09298 11.5986C7.77348 9.674 8.17637 7.51138 10.101 6.19188L9.53359 3.35222C9.53359 3.35222 9.32165 2.604 10.0695 2.39166C10.8177 2.17972 11.03 2.92794 11.03 2.92794L11.6853 4.87394C11.9451 5.6455 12.2216 6.41433 12.5875 7.14155C13.6208 9.19489 13.0036 11.7468 11.0553 13.0834C8.93004 14.5406 6.02465 13.9988 4.56709 11.8739L1.04804 6.74177Z" fill="#FFDC5D"/>
<path d="M4.6667 12.4608C3.11114 12.4608 1.53925 10.8889 1.53925 9.33333C1.53925 9.11828 1.38175 8.94444 1.1667 8.94444C0.951641 8.94444 0.761475 9.11828 0.761475 9.33333C0.761475 11.6667 2.33336 13.2386 4.6667 13.2386C4.88175 13.2386 5.05559 13.0484 5.05559 12.8333C5.05559 12.6183 4.88175 12.4608 4.6667 12.4608Z" fill="#5DADEC"/>
<path d="M2.72222 13.2222C1.55556 13.2222 0.777778 12.4444 0.777778 11.2778C0.777778 11.0627 0.603944 10.8889 0.388889 10.8889C0.173833 10.8889 0 11.0627 0 11.2778C0 12.8333 1.16667 14 2.72222 14C2.93728 14 3.11111 13.8262 3.11111 13.6111C3.11111 13.396 2.93728 13.2222 2.72222 13.2222ZM9.33333 0.777771C9.11867 0.777771 8.94444 0.951993 8.94444 1.16666C8.94444 1.38133 9.11867 1.55555 9.33333 1.55555C10.8889 1.55555 12.4444 2.95127 12.4444 4.66666C12.4444 4.88133 12.6187 5.05555 12.8333 5.05555C13.048 5.05555 13.2222 4.88133 13.2222 4.66666C13.2222 2.52233 11.6667 0.777771 9.33333 0.777771Z" fill="#5DADEC"/>
<path d="M11.2778 0.0163269C11.0631 0.0163269 10.8889 0.174216 10.8889 0.388882C10.8889 0.603549 11.0631 0.794105 11.2778 0.794105C12.4445 0.794105 13.2059 1.65938 13.2059 2.72222C13.2059 2.93688 13.3961 3.1111 13.6111 3.1111C13.8262 3.1111 13.9837 2.93688 13.9837 2.72222C13.9837 1.23005 12.8334 0.0163269 11.2778 0.0163269Z" fill="#5DADEC"/>
</g>
<defs>
<clipPath id="clip0_1_44">
<rect width="14" height="14" fill="white"/>
</clipPath>
</defs>
</svg>
