<svg width="105" height="36" viewBox="0 0 105 36" fill="none" xmlns="http://www.w3.org/2000/svg">
<g clip-path="url(#clip0_1_76)">
<path d="M6.54446 5.9865L4.75022 9.78324L0.745216 10.392C0.531616 10.4134 0.352726 10.5202 0.208546 10.7124C0.0643661 10.9046 -0.00505393 11.1236 0.000286071 11.3692C0.00562607 11.6149 0.0937361 11.8231 0.264616 11.994L3.14822 14.9257L2.47538 19.1389C2.43266 19.3739 2.47538 19.5848 2.60354 19.7717C2.7317 19.9586 2.90525 20.0814 3.12419 20.1402C3.34313 20.1989 3.54872 20.1749 3.74096 20.0681L7.34546 18.1937L10.95 20.0681C11.1636 20.1749 11.3798 20.1989 11.5988 20.1402C11.8177 20.0814 11.9859 19.9586 12.1034 19.7717C12.2209 19.5848 12.2583 19.3739 12.2155 19.1389L11.5587 14.9257L14.4263 11.994C14.5972 11.8231 14.6853 11.6202 14.6906 11.3852C14.696 11.1503 14.6292 10.9367 14.4904 10.7444C14.3515 10.5522 14.1753 10.4347 13.9617 10.392L9.95672 9.78324L8.14646 5.9865C8.03966 5.7729 7.87946 5.62605 7.66586 5.54595C7.45226 5.46585 7.23866 5.46585 7.02506 5.54595C6.81146 5.62605 6.65126 5.7729 6.54446 5.9865Z" fill="#FFA63A"/>
</g>
<g clip-path="url(#clip1_1_76)">
<path d="M6.54629 21.2L4.75429 24.992L0.754288 25.6C0.540955 25.6213 0.362288 25.728 0.218288 25.92C0.0742879 26.112 0.00495452 26.3307 0.0102879 26.576C0.0156212 26.8213 0.103621 27.0293 0.274288 27.2L3.15429 30.128L2.48229 34.336C2.43962 34.5707 2.48229 34.7813 2.61029 34.968C2.73829 35.1547 2.91162 35.2773 3.13029 35.336C3.34895 35.3947 3.55429 35.3707 3.74629 35.264L7.34629 33.392L10.9463 35.264C11.1596 35.3707 11.3756 35.3947 11.5943 35.336C11.813 35.2773 11.981 35.1547 12.0983 34.968C12.2156 34.7813 12.253 34.5707 12.2103 34.336L11.5543 30.128L14.4183 27.2C14.589 27.0293 14.677 26.8267 14.6823 26.592C14.6876 26.3573 14.621 26.144 14.4823 25.952C14.3436 25.76 14.1676 25.6427 13.9543 25.6L9.95429 24.992L8.14629 21.2C8.03962 20.9867 7.87962 20.84 7.66629 20.76C7.45295 20.68 7.23962 20.68 7.02629 20.76C6.81295 20.84 6.65295 20.9867 6.54629 21.2Z" fill="#CCD6DF"/>
</g>
<g clip-path="url(#clip2_1_76)">
<g clip-path="url(#clip3_1_76)">
<path d="M28.5645 5.9865L26.7702 9.78324L22.7652 10.392C22.5516 10.4134 22.3727 10.5202 22.2286 10.7124C22.0844 10.9046 22.015 11.1236 22.0203 11.3692C22.0256 11.6149 22.1137 11.8231 22.2846 11.994L25.1682 14.9257L24.4954 19.1389C24.4527 19.3739 24.4954 19.5848 24.6235 19.7717C24.7517 19.9586 24.9253 20.0814 25.1442 20.1402C25.3631 20.1989 25.5687 20.1749 25.761 20.0681L29.3655 18.1937L32.97 20.0681C33.1836 20.1749 33.3998 20.1989 33.6188 20.1402C33.8377 20.0814 34.0059 19.9586 34.1234 19.7717C34.2409 19.5848 34.2783 19.3739 34.2355 19.1389L33.5787 14.9257L36.4463 11.994C36.6172 11.8231 36.7053 11.6202 36.7106 11.3852C36.716 11.1503 36.6492 10.9367 36.5104 10.7444C36.3715 10.5522 36.1953 10.4347 35.9817 10.392L31.9767 9.78324L30.1665 5.9865C30.0597 5.7729 29.8995 5.62605 29.6859 5.54595C29.4723 5.46585 29.2587 5.46585 29.0451 5.54595C28.8315 5.62605 28.6713 5.7729 28.5645 5.9865Z" fill="#FFA63A"/>
</g>
</g>
<g clip-path="url(#clip4_1_76)">
<path d="M28.5663 21.2L26.7743 24.992L22.7743 25.6C22.561 25.6213 22.3823 25.728 22.2383 25.92C22.0943 26.112 22.025 26.3307 22.0303 26.576C22.0356 26.8213 22.1236 27.0293 22.2943 27.2L25.1743 30.128L24.5023 34.336C24.4596 34.5707 24.5023 34.7813 24.6303 34.968C24.7583 35.1547 24.9316 35.2773 25.1503 35.336C25.369 35.3947 25.5743 35.3707 25.7663 35.264L29.3663 33.392L32.9663 35.264C33.1796 35.3707 33.3956 35.3947 33.6143 35.336C33.833 35.2773 34.001 35.1547 34.1183 34.968C34.2356 34.7813 34.273 34.5707 34.2303 34.336L33.5743 30.128L36.4383 27.2C36.609 27.0293 36.697 26.8267 36.7023 26.592C36.7076 26.3573 36.641 26.144 36.5023 25.952C36.3636 25.76 36.1876 25.6427 35.9743 25.6L31.9743 24.992L30.1663 21.2C30.0596 20.9867 29.8996 20.84 29.6863 20.76C29.473 20.68 29.2596 20.68 29.0463 20.76C28.833 20.84 28.673 20.9867 28.5663 21.2Z" fill="#CCD6DF"/>
</g>
<g clip-path="url(#clip5_1_76)">
<g clip-path="url(#clip6_1_76)">
<path d="M50.5745 5.9865L48.7802 9.78324L44.7752 10.392C44.5616 10.4134 44.3827 10.5202 44.2385 10.7124C44.0944 10.9046 44.0249 11.1236 44.0303 11.3692C44.0356 11.6149 44.1237 11.8231 44.2946 11.994L47.1782 14.9257L46.5054 19.1389C46.4627 19.3739 46.5054 19.5848 46.6335 19.7717C46.7617 19.9586 46.9352 20.0814 47.1542 20.1402C47.3731 20.1989 47.5787 20.1749 47.771 20.0681L51.3755 18.1937L54.98 20.0681C55.1936 20.1749 55.4098 20.1989 55.6288 20.1402C55.8477 20.0814 56.0159 19.9586 56.1334 19.7717C56.2509 19.5848 56.2883 19.3739 56.2455 19.1389L55.5887 14.9257L58.4563 11.994C58.6272 11.8231 58.7153 11.6202 58.7206 11.3852C58.726 11.1503 58.6592 10.9367 58.5204 10.7444C58.3815 10.5522 58.2053 10.4347 57.9917 10.392L53.9867 9.78324L52.1765 5.9865C52.0697 5.7729 51.9095 5.62605 51.6959 5.54595C51.4823 5.46585 51.2687 5.46585 51.0551 5.54595C50.8415 5.62605 50.6813 5.7729 50.5745 5.9865Z" fill="#FFA63A"/>
</g>
</g>
<g clip-path="url(#clip7_1_76)">
<path d="M50.5863 21.2L48.7943 24.992L44.7943 25.6C44.581 25.6213 44.4023 25.728 44.2583 25.92C44.1143 26.112 44.045 26.3307 44.0503 26.576C44.0556 26.8213 44.1436 27.0293 44.3143 27.2L47.1943 30.128L46.5223 34.336C46.4796 34.5707 46.5223 34.7813 46.6503 34.968C46.7783 35.1547 46.9516 35.2773 47.1703 35.336C47.389 35.3947 47.5943 35.3707 47.7863 35.264L51.3863 33.392L54.9863 35.264C55.1996 35.3707 55.4156 35.3947 55.6343 35.336C55.853 35.2773 56.021 35.1547 56.1383 34.968C56.2556 34.7813 56.293 34.5707 56.2503 34.336L55.5943 30.128L58.4583 27.2C58.629 27.0293 58.717 26.8267 58.7223 26.592C58.7276 26.3573 58.661 26.144 58.5223 25.952C58.3836 25.76 58.2076 25.6427 57.9943 25.6L53.9943 24.992L52.1863 21.2C52.0796 20.9867 51.9196 20.84 51.7063 20.76C51.493 20.68 51.2796 20.68 51.0663 20.76C50.853 20.84 50.693 20.9867 50.5863 21.2Z" fill="#CCD6DF"/>
</g>
<g clip-path="url(#clip8_1_76)">
<g clip-path="url(#clip9_1_76)">
<path d="M72.5945 5.9865L70.8002 9.78324L66.7952 10.392C66.5816 10.4134 66.4027 10.5202 66.2585 10.7124C66.1144 10.9046 66.0449 11.1236 66.0503 11.3692C66.0556 11.6149 66.1437 11.8231 66.3146 11.994L69.1982 14.9257L68.5254 19.1389C68.4827 19.3739 68.5254 19.5848 68.6535 19.7717C68.7817 19.9586 68.9552 20.0814 69.1742 20.1402C69.3931 20.1989 69.5987 20.1749 69.791 20.0681L73.3955 18.1937L77 20.0681C77.2136 20.1749 77.4298 20.1989 77.6488 20.1402C77.8677 20.0814 78.0359 19.9586 78.1534 19.7717C78.2709 19.5848 78.3083 19.3739 78.2655 19.1389L77.6087 14.9257L80.4763 11.994C80.6472 11.8231 80.7353 11.6202 80.7406 11.3852C80.746 11.1503 80.6792 10.9367 80.5404 10.7444C80.4015 10.5522 80.2253 10.4347 80.0117 10.392L76.0067 9.78324L74.1965 5.9865C74.0897 5.7729 73.9295 5.62605 73.7159 5.54595C73.5023 5.46585 73.2887 5.46585 73.0751 5.54595C72.8615 5.62605 72.7013 5.7729 72.5945 5.9865Z" fill="#FFA63A"/>
</g>
</g>
<g clip-path="url(#clip10_1_76)">
<path d="M72.6063 21.2L70.8143 24.992L66.8143 25.6C66.6009 25.6213 66.4223 25.728 66.2783 25.92C66.1343 26.112 66.0649 26.3307 66.0703 26.576C66.0756 26.8213 66.1636 27.0293 66.3343 27.2L69.2143 30.128L68.5423 34.336C68.4996 34.5707 68.5423 34.7813 68.6703 34.968C68.7983 35.1547 68.9716 35.2773 69.1903 35.336C69.4089 35.3947 69.6143 35.3707 69.8063 35.264L73.4063 33.392L77.0063 35.264C77.2196 35.3707 77.4356 35.3947 77.6543 35.336C77.8729 35.2773 78.0409 35.1547 78.1583 34.968C78.2756 34.7813 78.3129 34.5707 78.2703 34.336L77.6143 30.128L80.4783 27.2C80.6489 27.0293 80.7369 26.8267 80.7423 26.592C80.7476 26.3573 80.6809 26.144 80.5423 25.952C80.4036 25.76 80.2276 25.6427 80.0143 25.6L76.0143 24.992L74.2063 21.2C74.0996 20.9867 73.9396 20.84 73.7263 20.76C73.5129 20.68 73.2996 20.68 73.0863 20.76C72.8729 20.84 72.7129 20.9867 72.6063 21.2Z" fill="#CCD6DF"/>
</g>
<g clip-path="url(#clip11_1_76)">
<g clip-path="url(#clip12_1_76)">
<path d="M94.6045 5.9865L92.8102 9.78324L88.8052 10.392C88.5916 10.4134 88.4127 10.5202 88.2685 10.7124C88.1244 10.9046 88.0549 11.1236 88.0603 11.3692C88.0656 11.6149 88.1537 11.8231 88.3246 11.994L91.2082 14.9257L90.5354 19.1389C90.4927 19.3739 90.5354 19.5848 90.6635 19.7717C90.7917 19.9586 90.9652 20.0814 91.1842 20.1402C91.4031 20.1989 91.6087 20.1749 91.801 20.0681L95.4055 18.1937L99.01 20.0681C99.2236 20.1749 99.4398 20.1989 99.6588 20.1402C99.8777 20.0814 100.046 19.9586 100.163 19.7717C100.281 19.5848 100.318 19.3739 100.276 19.1389L99.6187 14.9257L102.486 11.994C102.657 11.8231 102.745 11.6202 102.751 11.3852C102.756 11.1503 102.689 10.9367 102.55 10.7444C102.412 10.5522 102.235 10.4347 102.022 10.392L98.0167 9.78324L96.2065 5.9865C96.0997 5.7729 95.9395 5.62605 95.7259 5.54595C95.5123 5.46585 95.2987 5.46585 95.0851 5.54595C94.8715 5.62605 94.7113 5.7729 94.6045 5.9865Z" fill="#FFA63A"/>
</g>
</g>
<g clip-path="url(#clip13_1_76)">
<path d="M94.6263 21.2L92.8343 24.992L88.8343 25.6C88.6209 25.6213 88.4423 25.728 88.2983 25.92C88.1543 26.112 88.0849 26.3307 88.0903 26.576C88.0956 26.8213 88.1836 27.0293 88.3543 27.2L91.2343 30.128L90.5623 34.336C90.5196 34.5707 90.5623 34.7813 90.6903 34.968C90.8183 35.1547 90.9916 35.2773 91.2103 35.336C91.4289 35.3947 91.6343 35.3707 91.8263 35.264L95.4263 33.392L99.0263 35.264C99.2396 35.3707 99.4556 35.3947 99.6743 35.336C99.893 35.2773 100.061 35.1547 100.178 34.968C100.296 34.7813 100.333 34.5707 100.29 34.336L99.6343 30.128L102.498 27.2C102.669 27.0293 102.757 26.8267 102.762 26.592C102.768 26.3573 102.701 26.144 102.562 25.952C102.424 25.76 102.248 25.6427 102.034 25.6L98.0343 24.992L96.2263 21.2C96.1196 20.9867 95.9596 20.84 95.7463 20.76C95.5329 20.68 95.3196 20.68 95.1063 20.76C94.8929 20.84 94.7329 20.9867 94.6263 21.2Z" fill="#CCD6DF"/>
</g>
<defs>
<clipPath id="clip0_1_76">
<rect width="16.02" height="25.59" fill="white"/>
</clipPath>
<clipPath id="clip1_1_76">
<rect width="16.02" height="16" fill="white" transform="matrix(1 0 0 -1 0 36)"/>
</clipPath>
<clipPath id="clip2_1_76">
<rect width="16.02" height="25.59" fill="white" transform="translate(22.02)"/>
</clipPath>
<clipPath id="clip3_1_76">
<rect width="16.02" height="25.59" fill="white" transform="matrix(1 0 0 -1 22.02 25.59)"/>
</clipPath>
<clipPath id="clip4_1_76">
<rect width="16.02" height="16" fill="white" transform="matrix(1 0 0 -1 22.02 36)"/>
</clipPath>
<clipPath id="clip5_1_76">
<rect width="16.02" height="25.59" fill="white" transform="translate(44.03)"/>
</clipPath>
<clipPath id="clip6_1_76">
<rect width="16.02" height="25.59" fill="white" transform="matrix(1 0 0 -1 44.03 25.59)"/>
</clipPath>
<clipPath id="clip7_1_76">
<rect width="16.02" height="16" fill="white" transform="matrix(1 0 0 -1 44.04 36)"/>
</clipPath>
<clipPath id="clip8_1_76">
<rect width="16.02" height="25.59" fill="white" transform="translate(66.05)"/>
</clipPath>
<clipPath id="clip9_1_76">
<rect width="16.02" height="25.59" fill="white" transform="matrix(1 0 0 -1 66.05 25.59)"/>
</clipPath>
<clipPath id="clip10_1_76">
<rect width="16.02" height="16" fill="white" transform="matrix(1 0 0 -1 66.06 36)"/>
</clipPath>
<clipPath id="clip11_1_76">
<rect width="16.02" height="25.59" fill="white" transform="translate(88.06)"/>
</clipPath>
<clipPath id="clip12_1_76">
<rect width="16.02" height="25.59" fill="white" transform="matrix(1 0 0 -1 88.06 25.59)"/>
</clipPath>
<clipPath id="clip13_1_76">
<rect width="16.02" height="16" fill="white" transform="matrix(1 0 0 -1 88.08 36)"/>
</clipPath>
</defs>
</svg>
