<svg width="60" height="60" viewBox="0 0 60 60" fill="none" xmlns="http://www.w3.org/2000/svg">
<path d="M11.8697 15.5809C8.88574 15.5809 6.32672 16.6479 4.19263 18.782C2.05855 20.9161 0.991501 23.4751 0.991501 26.459V44.5894H19.1218V26.459H4.61756C4.61756 24.4572 5.32578 22.748 6.74221 21.3316C8.15864 19.9151 9.8678 19.2069 11.8697 19.2069V15.5809ZM37.2521 15.5809C34.2682 15.5809 31.7092 16.6479 29.5751 18.782C27.441 20.9161 26.3739 23.4751 26.3739 26.459V44.5894H44.5042V26.459H30C30 24.4572 30.7082 22.748 32.1246 21.3316C33.5411 19.9151 35.2502 19.2069 37.2521 19.2069V15.5809ZM4.61756 30.0851H15.4958V40.9633H4.61756V30.0851ZM30 30.0851H40.8782V40.9633H30V30.0851Z" fill="#3267FF"/>
</svg>
