<svg width="24" height="24" viewBox="0 0 24 24" fill="none" xmlns="http://www.w3.org/2000/svg">
<g clip-path="url(#clip0_1_477)">
<path d="M5.58374 2.99151C5.26646 2.73466 4.91141 2.60624 4.51859 2.60624C4.12576 2.60624 3.77071 2.73466 3.45343 2.99151L3.4081 3.01417L3.38544 3.03683L1.11915 5.37111L1.14182 5.39377C0.794318 5.71105 0.567689 6.09632 0.461929 6.54958C0.356169 7.00284 0.378832 7.43343 0.529918 7.84136V7.86403C0.93785 9.0425 1.57619 10.3683 2.44493 11.8414C3.31368 13.3145 4.42793 14.7309 5.78771 16.0907C8.02378 18.3267 10.766 20.0793 14.0143 21.3484H14.037C14.9586 21.6657 15.7971 21.4995 16.5526 20.8499L18.8415 18.5609C19.1437 18.2587 19.2948 17.8848 19.2948 17.4391C19.2948 16.9934 19.1437 16.6195 18.8415 16.3173L15.8954 13.3711L15.8727 13.3258C15.5705 13.0236 15.1928 12.8725 14.7395 12.8725C14.2863 12.8725 13.9086 13.0236 13.6064 13.3258L12.156 14.7762C11.0379 14.2323 10.0483 13.5524 9.18714 12.7365C8.35617 11.9509 7.68384 10.9688 7.17014 9.79037L8.62057 8.33995C8.92274 8.03778 9.07383 7.66762 9.07383 7.22947C9.07383 6.79132 8.91519 6.42116 8.59791 6.11899L8.62057 6.09632L8.55258 6.02833L5.62907 3.01417L5.58374 2.99151ZM4.35995 4.12465C4.42038 4.07932 4.47326 4.05666 4.51859 4.05666C4.56391 4.05666 4.61679 4.07932 4.67723 4.12465L7.64606 7.16148C7.69139 7.2068 7.67628 7.25968 7.60074 7.32012L5.78771 9.13315L5.44776 9.45043L5.6064 9.90369C5.66684 10.0699 5.76127 10.2927 5.88969 10.5722C6.01811 10.8518 6.30518 11.3352 6.75088 12.0227C7.19658 12.7101 7.67628 13.3031 8.18997 13.8017L8.34861 13.9377C8.8472 14.3909 9.40244 14.8178 10.0143 15.2181C10.6262 15.6185 11.1135 15.9018 11.4761 16.068L12.02 16.3173L12.4733 16.5213L14.6262 14.3683C14.6867 14.3078 14.7244 14.2776 14.7395 14.2776C14.7547 14.2776 14.7924 14.3078 14.8529 14.3683L17.8217 17.3371C17.8821 17.3975 17.9124 17.4315 17.9124 17.4391C17.9124 17.4467 17.8821 17.4806 17.8217 17.5411L15.6007 19.762C15.2835 20.034 14.9133 20.102 14.4903 19.966C11.4232 18.7573 8.86231 17.1256 6.80754 15.0708C5.53842 13.8017 4.49592 12.4684 3.68006 11.0708C2.86419 9.67328 2.26741 8.43815 1.88969 7.36544C1.75371 6.98773 1.82926 6.67045 2.11632 6.4136L2.16165 6.36828L4.35995 4.12465Z" fill="#3267FF"/>
</g>
<defs>
<clipPath id="clip0_1_477">
<rect width="24" height="24" fill="white" transform="matrix(1 0 0 -1 0 24)"/>
</clipPath>
</defs>
</svg>
