<svg width="16" height="16" viewBox="0 0 16 16" fill="none" xmlns="http://www.w3.org/2000/svg">
<g clip-path="url(#clip0_1_538)">
<path d="M14.7838 1.11807C14.7233 1.08786 14.6604 1.07023 14.5949 1.06519C14.5294 1.06016 14.4665 1.07275 14.406 1.10297L9.9339 3.33904L5.46176 1.10297C5.4114 1.07275 5.356 1.05764 5.29557 1.05764C5.23513 1.05764 5.1747 1.07275 5.11426 1.10297L0.475925 3.42969C0.41549 3.45991 0.365128 3.50523 0.324839 3.56567C0.284549 3.6261 0.264404 3.69157 0.264404 3.76208V15.3655C0.264404 15.436 0.279513 15.5015 0.30973 15.5619C0.339947 15.6223 0.385273 15.6676 0.445707 15.6979C0.475925 15.718 0.50866 15.7331 0.543913 15.7432C0.579167 15.7533 0.616938 15.7583 0.657228 15.7583C0.687445 15.7583 0.715144 15.7558 0.740325 15.7507C0.765506 15.7457 0.793205 15.7331 0.823422 15.713L5.29557 13.4769L9.76771 15.713C9.81807 15.7432 9.87347 15.7583 9.9339 15.7583C9.99434 15.7583 10.0497 15.7432 10.1001 15.713L14.7535 13.4014C14.814 13.3611 14.8643 13.3107 14.9046 13.2503C14.9449 13.1898 14.9651 13.1244 14.9651 13.0539V1.45046C14.9651 1.37996 14.9474 1.317 14.9122 1.26161C14.8769 1.20621 14.8341 1.15836 14.7838 1.11807ZM4.90274 12.8121L1.03494 14.746V4.00382L4.90274 2.06992V12.8121ZM5.67328 2.06992L9.54108 4.00382V14.746L5.67328 12.8121V2.06992ZM14.1945 12.8121L10.3267 14.746V4.00382L14.1945 2.06992V12.8121Z" fill="white"/>
</g>
<defs>
<clipPath id="clip0_1_538">
<rect width="16" height="16" fill="white" transform="matrix(1 0 0 -1 0 16)"/>
</clipPath>
</defs>
</svg>
