<svg width="14" height="14" viewBox="0 0 14 14" fill="none" xmlns="http://www.w3.org/2000/svg">
<g clip-path="url(#clip0_1_30)">
<path d="M12.9358 0.978285C12.8829 0.951844 12.8278 0.936421 12.7705 0.932014C12.7133 0.927608 12.6582 0.938624 12.6053 0.965064L8.69217 2.92163L4.77904 0.965064C4.73497 0.938624 4.6865 0.925405 4.63362 0.925405C4.58074 0.925405 4.52786 0.938624 4.47498 0.965064L0.416434 3.00095C0.363554 3.02739 0.319487 3.06705 0.284234 3.11993C0.24898 3.17281 0.231354 3.23009 0.231354 3.29179V13.4448C0.231354 13.5065 0.244574 13.5637 0.271014 13.6166C0.297454 13.6695 0.337114 13.7092 0.389994 13.7356C0.416434 13.7532 0.445077 13.7664 0.475924 13.7753C0.506771 13.7841 0.539821 13.7885 0.575074 13.7885C0.601514 13.7885 0.625751 13.7863 0.647784 13.7819C0.669818 13.7775 0.694054 13.7664 0.720494 13.7488L4.63362 11.7923L8.54675 13.7488C8.59081 13.7753 8.63929 13.7885 8.69217 13.7885C8.74505 13.7885 8.79352 13.7753 8.83759 13.7488L12.9094 11.7262C12.9622 11.6909 13.0063 11.6468 13.0416 11.594C13.0768 11.5411 13.0944 11.4838 13.0944 11.4221V1.26912C13.0944 1.20743 13.079 1.15235 13.0482 1.10388C13.0173 1.0554 12.9799 1.01354 12.9358 0.978285ZM4.2899 11.2106L0.905575 12.9027V3.50331L4.2899 1.81115V11.2106ZM4.96412 1.81115L8.34844 3.50331V12.9027L4.96412 11.2106V1.81115ZM12.4202 11.2106L9.03589 12.9027V3.50331L12.4202 1.81115V11.2106Z" fill="#3267FF"/>
</g>
<defs>
<clipPath id="clip0_1_30">
<rect width="14" height="14" fill="white" transform="matrix(1 0 0 -1 0 14)"/>
</clipPath>
</defs>
</svg>
