<svg width="24" height="24" viewBox="0 0 24 24" fill="none" xmlns="http://www.w3.org/2000/svg">
<g clip-path="url(#clip0_1_485)">
<path d="M3.29745 3.33144V4.05665H0.396601V20.0113H16.3513V4.05665H13.4504V3.33144H12V4.05665H4.74788V3.33144H3.29745ZM1.84703 5.50707H3.29745V6.23229H4.74788V5.50707H12V6.23229H13.4504V5.50707H14.9009V6.9575H1.84703V5.50707ZM1.84703 8.40792H14.9009V18.5609H1.84703V8.40792ZM6.1983 9.85835V11.3088H7.64873V9.85835H6.1983ZM9.09915 9.85835V11.3088H10.5496V9.85835H9.09915ZM12 9.85835V11.3088H13.4504V9.85835H12ZM3.29745 12.7592V14.2096H4.74788V12.7592H3.29745ZM6.1983 12.7592V14.2096H7.64873V12.7592H6.1983ZM9.09915 12.7592V14.2096H10.5496V12.7592H9.09915ZM12 12.7592V14.2096H13.4504V12.7592H12ZM3.29745 15.66V17.1105H4.74788V15.66H3.29745ZM6.1983 15.66V17.1105H7.64873V15.66H6.1983ZM9.09915 15.66V17.1105H10.5496V15.66H9.09915Z" fill="#3267FF"/>
</g>
<defs>
<clipPath id="clip0_1_485">
<rect width="24" height="24" fill="white" transform="matrix(1 0 0 -1 0 24)"/>
</clipPath>
</defs>
</svg>
