<svg width="14" height="14" viewBox="0 0 14 14" fill="none" xmlns="http://www.w3.org/2000/svg">
<g clip-path="url(#clip0_1_36)">
<path d="M12.7507 1.59962H11.0585V1.26912C11.0585 1.17217 11.0255 1.09065 10.9594 1.02455C10.8933 0.95845 10.8162 0.925401 10.728 0.925401C10.6311 0.925401 10.5496 0.95845 10.4835 1.02455C10.4174 1.09065 10.3843 1.17217 10.3843 1.26912V1.59962H3.61568V1.26912C3.61568 1.17217 3.58263 1.09065 3.51653 1.02455C3.45043 0.95845 3.3689 0.925401 3.27196 0.925401C3.18382 0.925401 3.10671 0.95845 3.04061 1.02455C2.97451 1.09065 2.94146 1.17217 2.94146 1.26912V1.59962H1.2493C0.967268 1.59962 0.727104 1.69877 0.528804 1.89707C0.330504 2.09537 0.231354 2.33554 0.231354 2.61756V12.0963C0.231354 12.3783 0.330504 12.6185 0.528804 12.8168C0.727104 13.0151 0.967268 13.1143 1.2493 13.1143H12.7507C13.0327 13.1143 13.2729 13.0151 13.4712 12.8168C13.6695 12.6185 13.7687 12.3783 13.7687 12.0963V2.61756C13.7687 2.33554 13.6695 2.09537 13.4712 1.89707C13.2729 1.69877 13.0327 1.59962 12.7507 1.59962ZM1.2493 2.28706H2.94146V3.29178C2.94146 3.38873 2.97451 3.47025 3.04061 3.53635C3.10671 3.60245 3.18382 3.6355 3.27196 3.6355C3.3689 3.6355 3.45043 3.60245 3.51653 3.53635C3.58263 3.47025 3.61568 3.38873 3.61568 3.29178V2.28706H10.3843V3.29178C10.3843 3.38873 10.4174 3.47025 10.4835 3.53635C10.5496 3.60245 10.6311 3.6355 10.728 3.6355C10.8162 3.6355 10.8933 3.60245 10.9594 3.53635C11.0255 3.47025 11.0585 3.38873 11.0585 3.29178V2.28706H12.7507C12.8477 2.28706 12.9292 2.32011 12.9953 2.38621C13.0614 2.45231 13.0944 2.52943 13.0944 2.61756V4.30973H0.905575V2.61756C0.905575 2.52943 0.938625 2.45231 1.00472 2.38621C1.07082 2.32011 1.15235 2.28706 1.2493 2.28706ZM12.7507 12.44H1.2493C1.15235 12.44 1.07082 12.407 1.00472 12.3409C0.938625 12.2748 0.905575 12.1933 0.905575 12.0963V4.98395H13.0944V12.0963C13.0944 12.1933 13.0614 12.2748 12.9953 12.3409C12.9292 12.407 12.8477 12.44 12.7507 12.44ZM5.30784 7.01983H4.63362C4.53667 7.01983 4.45515 6.98678 4.38905 6.92068C4.32295 6.85458 4.2899 6.77306 4.2899 6.67611C4.2899 6.58798 4.32295 6.51086 4.38905 6.44476C4.45515 6.37866 4.53667 6.34561 4.63362 6.34561H5.30784C5.40479 6.34561 5.48631 6.37866 5.55241 6.44476C5.61851 6.51086 5.65156 6.58798 5.65156 6.67611C5.65156 6.77306 5.61851 6.85458 5.55241 6.92068C5.48631 6.98678 5.40479 7.01983 5.30784 7.01983ZM7.34372 7.01983H6.65628C6.56815 7.01983 6.49103 6.98678 6.42493 6.92068C6.35883 6.85458 6.32578 6.77306 6.32578 6.67611C6.32578 6.58798 6.35883 6.51086 6.42493 6.44476C6.49103 6.37866 6.56815 6.34561 6.65628 6.34561H7.34372C7.43186 6.34561 7.50897 6.37866 7.57507 6.44476C7.64117 6.51086 7.67422 6.58798 7.67422 6.67611C7.67422 6.77306 7.64117 6.85458 7.57507 6.92068C7.50897 6.98678 7.43186 7.01983 7.34372 7.01983ZM9.36639 7.01983H8.69217C8.59522 7.01983 8.5137 6.98678 8.4476 6.92068C8.3815 6.85458 8.34844 6.77306 8.34844 6.67611C8.34844 6.58798 8.3815 6.51086 8.4476 6.44476C8.5137 6.37866 8.59522 6.34561 8.69217 6.34561H9.36639C9.46333 6.34561 9.54486 6.37866 9.61096 6.44476C9.67706 6.51086 9.71011 6.58798 9.71011 6.67611C9.71011 6.77306 9.67706 6.85458 9.61096 6.92068C9.54486 6.98678 9.46333 7.01983 9.36639 7.01983ZM11.4023 7.01983H10.728C10.6311 7.01983 10.5496 6.98678 10.4835 6.92068C10.4174 6.85458 10.3843 6.77306 10.3843 6.67611C10.3843 6.58798 10.4174 6.51086 10.4835 6.44476C10.5496 6.37866 10.6311 6.34561 10.728 6.34561H11.4023C11.4904 6.34561 11.5675 6.37866 11.6336 6.44476C11.6997 6.51086 11.7328 6.58798 11.7328 6.67611C11.7328 6.77306 11.6997 6.85458 11.6336 6.92068C11.5675 6.98678 11.4904 7.01983 11.4023 7.01983ZM3.27196 8.36827H2.59774C2.5096 8.36827 2.43249 8.33522 2.36639 8.26912C2.30029 8.20302 2.26724 8.1259 2.26724 8.03777C2.26724 7.94082 2.30029 7.8593 2.36639 7.7932C2.43249 7.7271 2.5096 7.69405 2.59774 7.69405H3.27196C3.3689 7.69405 3.45043 7.7271 3.51653 7.7932C3.58263 7.8593 3.61568 7.94082 3.61568 8.03777C3.61568 8.1259 3.58263 8.20302 3.51653 8.26912C3.45043 8.33522 3.3689 8.36827 3.27196 8.36827ZM5.30784 8.36827H4.63362C4.53667 8.36827 4.45515 8.33522 4.38905 8.26912C4.32295 8.20302 4.2899 8.1259 4.2899 8.03777C4.2899 7.94082 4.32295 7.8593 4.38905 7.7932C4.45515 7.7271 4.53667 7.69405 4.63362 7.69405H5.30784C5.40479 7.69405 5.48631 7.7271 5.55241 7.7932C5.61851 7.8593 5.65156 7.94082 5.65156 8.03777C5.65156 8.1259 5.61851 8.20302 5.55241 8.26912C5.48631 8.33522 5.40479 8.36827 5.30784 8.36827ZM7.34372 8.36827H6.65628C6.56815 8.36827 6.49103 8.33522 6.42493 8.26912C6.35883 8.20302 6.32578 8.1259 6.32578 8.03777C6.32578 7.94082 6.35883 7.8593 6.42493 7.7932C6.49103 7.7271 6.56815 7.69405 6.65628 7.69405H7.34372C7.43186 7.69405 7.50897 7.7271 7.57507 7.7932C7.64117 7.8593 7.67422 7.94082 7.67422 8.03777C7.67422 8.1259 7.64117 8.20302 7.57507 8.26912C7.50897 8.33522 7.43186 8.36827 7.34372 8.36827ZM9.36639 8.36827H8.69217C8.59522 8.36827 8.5137 8.33522 8.4476 8.26912C8.3815 8.20302 8.34844 8.1259 8.34844 8.03777C8.34844 7.94082 8.3815 7.8593 8.4476 7.7932C8.5137 7.7271 8.59522 7.69405 8.69217 7.69405H9.36639C9.46333 7.69405 9.54486 7.7271 9.61096 7.7932C9.67706 7.8593 9.71011 7.94082 9.71011 8.03777C9.71011 8.1259 9.67706 8.20302 9.61096 8.26912C9.54486 8.33522 9.46333 8.36827 9.36639 8.36827ZM11.4023 8.36827H10.728C10.6311 8.36827 10.5496 8.33522 10.4835 8.26912C10.4174 8.20302 10.3843 8.1259 10.3843 8.03777C10.3843 7.94082 10.4174 7.8593 10.4835 7.7932C10.5496 7.7271 10.6311 7.69405 10.728 7.69405H11.4023C11.4904 7.69405 11.5675 7.7271 11.6336 7.7932C11.6997 7.8593 11.7328 7.94082 11.7328 8.03777C11.7328 8.1259 11.6997 8.20302 11.6336 8.26912C11.5675 8.33522 11.4904 8.36827 11.4023 8.36827ZM3.27196 9.72993H2.59774C2.5096 9.72993 2.43249 9.69688 2.36639 9.63078C2.30029 9.56468 2.26724 9.48316 2.26724 9.38621C2.26724 9.29808 2.30029 9.22096 2.36639 9.15486C2.43249 9.08876 2.5096 9.05571 2.59774 9.05571H3.27196C3.3689 9.05571 3.45043 9.08876 3.51653 9.15486C3.58263 9.22096 3.61568 9.29808 3.61568 9.38621C3.61568 9.48316 3.58263 9.56468 3.51653 9.63078C3.45043 9.69688 3.3689 9.72993 3.27196 9.72993ZM5.30784 9.72993H4.63362C4.53667 9.72993 4.45515 9.69688 4.38905 9.63078C4.32295 9.56468 4.2899 9.48316 4.2899 9.38621C4.2899 9.29808 4.32295 9.22096 4.38905 9.15486C4.45515 9.08876 4.53667 9.05571 4.63362 9.05571H5.30784C5.40479 9.05571 5.48631 9.08876 5.55241 9.15486C5.61851 9.22096 5.65156 9.29808 5.65156 9.38621C5.65156 9.48316 5.61851 9.56468 5.55241 9.63078C5.48631 9.69688 5.40479 9.72993 5.30784 9.72993ZM7.34372 9.72993H6.65628C6.56815 9.72993 6.49103 9.69688 6.42493 9.63078C6.35883 9.56468 6.32578 9.48316 6.32578 9.38621C6.32578 9.29808 6.35883 9.22096 6.42493 9.15486C6.49103 9.08876 6.56815 9.05571 6.65628 9.05571H7.34372C7.43186 9.05571 7.50897 9.08876 7.57507 9.15486C7.64117 9.22096 7.67422 9.29808 7.67422 9.38621C7.67422 9.48316 7.64117 9.56468 7.57507 9.63078C7.50897 9.69688 7.43186 9.72993 7.34372 9.72993ZM9.36639 9.72993H8.69217C8.59522 9.72993 8.5137 9.69688 8.4476 9.63078C8.3815 9.56468 8.34844 9.48316 8.34844 9.38621C8.34844 9.29808 8.3815 9.22096 8.4476 9.15486C8.5137 9.08876 8.59522 9.05571 8.69217 9.05571H9.36639C9.46333 9.05571 9.54486 9.08876 9.61096 9.15486C9.67706 9.22096 9.71011 9.29808 9.71011 9.38621C9.71011 9.48316 9.67706 9.56468 9.61096 9.63078C9.54486 9.69688 9.46333 9.72993 9.36639 9.72993ZM11.4023 9.72993H10.728C10.6311 9.72993 10.5496 9.69688 10.4835 9.63078C10.4174 9.56468 10.3843 9.48316 10.3843 9.38621C10.3843 9.29808 10.4174 9.22096 10.4835 9.15486C10.5496 9.08876 10.6311 9.05571 10.728 9.05571H11.4023C11.4904 9.05571 11.5675 9.08876 11.6336 9.15486C11.6997 9.22096 11.7328 9.29808 11.7328 9.38621C11.7328 9.48316 11.6997 9.56468 11.6336 9.63078C11.5675 9.69688 11.4904 9.72993 11.4023 9.72993ZM3.27196 11.0784H2.59774C2.5096 11.0784 2.43249 11.0453 2.36639 10.9792C2.30029 10.9131 2.26724 10.836 2.26724 10.7479C2.26724 10.6509 2.30029 10.5694 2.36639 10.5033C2.43249 10.4372 2.5096 10.4042 2.59774 10.4042H3.27196C3.3689 10.4042 3.45043 10.4372 3.51653 10.5033C3.58263 10.5694 3.61568 10.6509 3.61568 10.7479C3.61568 10.836 3.58263 10.9131 3.51653 10.9792C3.45043 11.0453 3.3689 11.0784 3.27196 11.0784ZM5.30784 11.0784H4.63362C4.53667 11.0784 4.45515 11.0453 4.38905 10.9792C4.32295 10.9131 4.2899 10.836 4.2899 10.7479C4.2899 10.6509 4.32295 10.5694 4.38905 10.5033C4.45515 10.4372 4.53667 10.4042 4.63362 10.4042H5.30784C5.40479 10.4042 5.48631 10.4372 5.55241 10.5033C5.61851 10.5694 5.65156 10.6509 5.65156 10.7479C5.65156 10.836 5.61851 10.9131 5.55241 10.9792C5.48631 11.0453 5.40479 11.0784 5.30784 11.0784ZM7.34372 11.0784H6.65628C6.56815 11.0784 6.49103 11.0453 6.42493 10.9792C6.35883 10.9131 6.32578 10.836 6.32578 10.7479C6.32578 10.6509 6.35883 10.5694 6.42493 10.5033C6.49103 10.4372 6.56815 10.4042 6.65628 10.4042H7.34372C7.43186 10.4042 7.50897 10.4372 7.57507 10.5033C7.64117 10.5694 7.67422 10.6509 7.67422 10.7479C7.67422 10.836 7.64117 10.9131 7.57507 10.9792C7.50897 11.0453 7.43186 11.0784 7.34372 11.0784ZM9.36639 11.0784H8.69217C8.59522 11.0784 8.5137 11.0453 8.4476 10.9792C8.3815 10.9131 8.34844 10.836 8.34844 10.7479C8.34844 10.6509 8.3815 10.5694 8.4476 10.5033C8.5137 10.4372 8.59522 10.4042 8.69217 10.4042H9.36639C9.46333 10.4042 9.54486 10.4372 9.61096 10.5033C9.67706 10.5694 9.71011 10.6509 9.71011 10.7479C9.71011 10.836 9.67706 10.9131 9.61096 10.9792C9.54486 11.0453 9.46333 11.0784 9.36639 11.0784ZM11.4023 11.0784H10.728C10.6311 11.0784 10.5496 11.0453 10.4835 10.9792C10.4174 10.9131 10.3843 10.836 10.3843 10.7479C10.3843 10.6509 10.4174 10.5694 10.4835 10.5033C10.5496 10.4372 10.6311 10.4042 10.728 10.4042H11.4023C11.4904 10.4042 11.5675 10.4372 11.6336 10.5033C11.6997 10.5694 11.7328 10.6509 11.7328 10.7479C11.7328 10.836 11.6997 10.9131 11.6336 10.9792C11.5675 11.0453 11.4904 11.0784 11.4023 11.0784Z" fill="#3267FF"/>
</g>
<defs>
<clipPath id="clip0_1_36">
<rect width="14" height="14" fill="white" transform="matrix(1 0 0 -1 0 14)"/>
</clipPath>
</defs>
</svg>
